<svg width="138" height="305" viewBox="0 0 138 305" fill="none" xmlns="http://www.w3.org/2000/svg">
<g filter="url(#filter0_d)">
<path d="M75.9764 286.03L75.7071 290.652C75.7071 290.652 93.4826 300.253 120.255 293.258C118.062 288.487 114.894 284.227 110.955 280.755C107.016 277.282 102.393 274.673 97.3841 273.095C97.3841 273.095 88.7148 276.298 75.9764 286.03Z" fill="#3D3D3D"/>
</g>
<g filter="url(#filter1_d)">
<path d="M49.5898 289.269L49.3204 293.891C49.3204 293.891 30.9699 301.767 4.73611 292.239C7.30215 287.703 10.8 283.762 14.9992 280.676C19.1985 277.589 24.004 275.427 29.0992 274.332C29.0992 274.332 37.4919 278.35 49.5898 289.269Z" fill="#3D3D3D"/>
</g>
<path d="M90.6364 177.914C90.6364 177.914 98.3595 230.039 99.5096 273.561C96.8868 275.135 94.3942 276.917 92.0558 278.889C87.2153 282.798 81.0936 286.641 75.0592 287.901L66.7829 219.033C66.6712 218.162 66.3813 217.323 65.9313 216.569C65.4813 215.815 64.8808 215.161 64.1672 214.649C63.4537 214.137 62.6423 213.777 61.7836 213.592C60.925 213.407 60.0374 213.401 59.1763 213.574C57.7635 213.853 56.4862 214.601 55.551 215.696C54.6158 216.791 54.0773 218.169 54.0227 219.608L51.5187 289.881C51.5187 289.881 40.833 291.926 34.0489 286.969C24.9137 280.301 21.6745 277.069 21.6745 277.069L24.9064 177.907L90.6364 177.914Z" fill="#006B70"/>
<path d="M27.2721 235.863C27.2721 235.863 34.5512 239.364 47.6535 235.863C47.6608 235.863 32.7096 271.028 27.2721 235.863Z" fill="#006060"/>
<path d="M94.276 236.838C94.276 236.838 86.9023 240.339 73.6762 236.838C73.6762 236.838 88.7876 272.003 94.276 236.838Z" fill="#006060"/>
<path d="M79.827 41.0091C79.827 41.0091 81.13 39.2766 84.0125 39.8444C86.895 40.4122 91.0805 48.2081 87.6375 53.8857C84.1945 59.5634 80.4093 58.9374 80.4093 58.9374L79.827 41.0091Z" fill="#E8A695"/>
<g style="mix-blend-mode:multiply">
<path d="M85.2572 50.2462C84.3624 50.2012 83.5022 49.8865 82.7896 49.3436V48.2153L83.2409 42.9016C81.9791 44.6069 81.2558 46.6503 81.1637 48.7696C81.0716 50.8889 81.615 52.9874 82.7241 54.7956V51.0833V50.4646C83.5746 50.5626 84.4361 50.4883 85.2572 50.2462Z" fill="#F5CABF"/>
</g>
<path d="M81.0499 26.0651C81.0499 26.0651 81.4503 41.2056 81.7341 46.7086C82.0981 53.9076 88.1179 69.1718 83.4811 75.3372C76.3476 84.7999 61.1198 84.9892 59.3656 87.5951C57.6113 90.201 59.0526 98.4118 59.0526 98.4118L74.5206 101.717C74.5206 101.717 55.3184 154.985 29.3903 105.633C29.3903 105.633 44.8438 102.27 45.3533 99.6129C45.8629 96.956 46.9766 89.2329 44.9603 87.8062C42.944 86.3795 32.1345 87.0783 24.5789 79.9812C17.6201 73.43 16.4336 63.9672 16.4336 63.9672C16.4336 63.9672 6.79609 65.3648 4.65604 55.8947C2.516 46.4247 9.33649 41.3366 12.5975 42.7924L15.8513 44.2482C15.8513 44.2482 15.9022 31.7428 21.5071 25.723C27.112 19.7032 34.0053 12.4751 54.343 11.5579C74.6807 10.6408 80.7587 22.3673 81.0499 26.0651Z" fill="#EFBCAB"/>
<g style="mix-blend-mode:multiply">
<path d="M10.2827 47.4729C10.2827 47.4729 18.1441 51.5055 15.1452 59.709L14.5628 55.5599L11.4984 57.5253L13.7185 53.6382L10.2827 47.4729Z" fill="#F5CABF"/>
</g>
<g style="mix-blend-mode:multiply" opacity="0.68">
<path d="M41.7065 55.5235C43.6925 55.5235 45.3024 53.5291 45.3024 51.0687C45.3024 48.6084 43.6925 46.614 41.7065 46.614C39.7206 46.614 38.1107 48.6084 38.1107 51.0687C38.1107 53.5291 39.7206 55.5235 41.7065 55.5235Z" fill="#F1CBCF"/>
</g>
<g style="mix-blend-mode:multiply" opacity="0.68">
<path d="M68.5153 55.4216C70.5013 55.4216 72.1112 53.4271 72.1112 50.9668C72.1112 48.5065 70.5013 46.512 68.5153 46.512C66.5294 46.512 64.9195 48.5065 64.9195 50.9668C64.9195 53.4271 66.5294 55.4216 68.5153 55.4216Z" fill="#F1CBCF"/>
</g>
<path d="M46.1395 54.4244C46.3433 53.7765 46.1977 46.9706 43.4462 47.1453C40.6947 47.32 39.581 52.8594 41.3353 54.8174C43.0895 56.7755 45.6008 56.1277 46.1395 54.4244Z" fill="#3D3D3D"/>
<path d="M44.4944 48.3682C44.2351 48.1495 43.9011 48.0399 43.5627 48.0625C41.4809 48.1789 40.4763 51.8621 41.2625 53.9367C43.0895 52.772 43.9412 50.6247 44.4944 48.3682Z" fill="white"/>
<path d="M70.1313 53.6746C70.3278 53.0414 70.1895 46.4611 67.5254 46.6139C64.8613 46.7668 63.7839 52.146 65.4873 54.0386C67.1906 55.9312 69.6145 55.3416 70.1313 53.6746Z" fill="#3D3D3D"/>
<path d="M68.5153 47.7567C68.3895 47.6435 68.2422 47.5567 68.0821 47.5017C67.922 47.4467 67.7525 47.4245 67.5836 47.4364C65.5673 47.5529 64.5919 51.076 65.3562 53.1214C67.125 52.015 67.9548 49.9477 68.5153 47.7567Z" fill="white"/>
<path d="M43.8902 65.4231C43.2163 64.9803 42.4158 64.7705 41.6114 64.8257C40.8069 64.881 40.0426 65.1981 39.4354 65.7288C37.208 67.6068 37.7758 70.8241 37.7176 72.5566C37.7176 72.5566 39.2316 67.2064 39.9013 68.7132C41.1751 71.7195 57.0726 80.8183 70.5171 69.543C70.5171 69.543 69.7455 69.5066 63.915 71.7267C56.8688 74.3545 42.6237 72.5202 40.8549 66.9881C40.8549 66.9881 42.0559 65.0955 43.8902 65.4231Z" fill="#D5646F"/>
<g style="mix-blend-mode:multiply">
<path d="M49.3204 60.0075C49.2549 61.8563 45.5426 63.1957 41.0296 63.0064C36.5165 62.8172 32.9134 61.1648 32.9862 59.3159C33.059 57.4671 36.764 56.1277 41.2771 56.317C45.7901 56.5062 49.3859 58.1658 49.3204 60.0075Z" fill="#F1CBCF"/>
</g>
<g style="mix-blend-mode:multiply">
<path d="M78.5386 57.8455C78.6987 59.6871 75.6779 61.4851 71.7836 61.9C67.8893 62.3149 64.6065 61.1211 64.4463 59.2868C64.2862 57.4525 67.307 55.6473 71.2013 55.2323C75.0956 54.8174 78.3785 56.0039 78.5386 57.8455Z" fill="#F1CBCF"/>
</g>
<g style="mix-blend-mode:multiply">
<path d="M35.1263 57.3142L34.442 57.5689C38.016 57.6417 45.3606 58.5443 49.0002 58.9738C46.6126 56.579 41.3135 55.3415 35.1263 57.3142Z" fill="#FFC1C4"/>
</g>
<g style="mix-blend-mode:multiply">
<path d="M76.3476 55.9166C76.1947 56.0112 68.3042 57.3724 65.0505 57.8892C66.1569 56.4917 71.6599 53.9513 76.3476 55.9166Z" fill="#FFC1C4"/>
</g>
<path d="M47.6462 42.9671C47.6462 42.9671 45.2223 36.314 36.6039 39.1893L34.4202 42.9307C34.4202 42.9307 41.823 39.0655 47.6462 42.9671Z" fill="#3D3D3D"/>
<path d="M64.6647 41.7078C64.6647 41.7078 66.994 34.4288 73.3341 35.8846L74.9355 38.4687C74.9355 38.4687 68.9521 38.4323 64.6647 41.7078Z" fill="#3D3D3D"/>
<path d="M54.8379 63.1229C54.8379 63.1229 54.0518 53.0123 56.7451 51.571C59.2054 50.2462 65.2834 60.7426 63.42 64.1711C61.5565 67.5995 56.1991 67.716 54.8379 63.1229Z" fill="#D5646F"/>
<g style="mix-blend-mode:multiply">
<path d="M62.8522 62.2348C62.8522 63.6907 62.0443 64.8044 61.047 64.8044C60.0498 64.8044 59.2418 63.6543 59.2418 62.2348C59.2418 60.8154 60.0498 59.6581 61.047 59.6581C62.0443 59.6581 62.8522 60.8154 62.8522 62.2348Z" fill="#F1CBCF"/>
</g>
<path d="M87.9796 6.15686C87.0406 4.38804 74.7098 6.48441 73.8509 7.34334C72.992 8.20228 78.2183 0.792179 78.2183 0.792179C48.1339 -2.68722 29.696 5.84385 19.8038 15.6706C9.91153 25.4974 12.5975 42.8288 12.5975 42.8288C15.5819 43.12 18.0641 46.5557 19.6364 49.38C21.2742 52.7575 22.6572 56.3024 22.6572 56.3024L24.4988 54.1187C24.4988 54.1187 23.1012 50.2244 22.3733 48.0261C21.8856 46.5703 22.1986 42.756 22.4679 40.3175C22.6289 38.611 23.3098 36.9951 24.4187 35.6881C28.7862 30.6291 37.2736 25.5337 37.2736 25.5337C37.2736 25.5337 55.595 33.7227 61.0397 32.165C66.4845 30.6073 73.3341 23.3791 73.3341 23.3791C75.1058 26.6468 77.7424 29.364 80.9553 31.2333C80.9553 31.2333 89.3772 8.80644 87.9796 6.15686Z" fill="#3D3D3D"/>
<path d="M59.1981 30.5417C59.4165 30.3088 59.0089 18.6841 69.2432 16.4349C79.4776 14.1857 59.4165 30.3088 59.4165 30.3088" fill="#4B4B4B"/>
<path d="M57.5967 30.0104C57.5967 30.0104 57.5531 29.9157 57.4803 29.7338C55.9476 25.7341 55.2443 21.4646 55.413 17.1846C55.646 9.8255 67.0595 5.52357 75.0665 2.93222C75.0665 2.93222 59.7805 18.3566 57.5967 29.923" fill="#4B4B4B"/>
<path d="M27.9636 140.652C28.8225 135.193 25.9764 120.868 16.4044 122.251C9.50882 138.199 5.25087 155.162 3.79709 172.476C10.523 169.82 17.7147 169.215 24.9064 169.062C26.1293 156.826 27.5123 143.535 27.9636 140.652Z" fill="#EFBCAB"/>
<path d="M3.20022 171.079C2.71253 177.361 3.20022 185.288 3.76071 191.992C3.76071 191.992 4.65604 202.539 13.6093 207.467C13.6093 207.467 18.479 210.575 18.2897 203.689C18.2533 202.19 14.0679 195.981 15.7639 193.564C17.4599 191.147 16.9286 194.619 18.5518 195.697C20.175 196.774 22.7882 192.901 22.8537 190.9C22.8537 189.961 23.8364 179.916 24.921 169.004C18.1951 168.713 9.92609 168.451 3.20022 171.079Z" fill="#9BCCCA"/>
<path d="M26.5151 155.065C26.5151 155.065 11.6803 148.375 7.02902 140.652C7.02902 140.652 13.1653 119.936 26.8936 105.589C26.8936 105.567 33.0371 120.387 26.5151 155.065Z" fill="#3D9499"/>
<path d="M8.70321 135.047C7.54584 138.469 7.02902 140.652 7.02902 140.652C11.6803 148.375 26.5151 155.065 26.5151 155.065C26.9955 152.488 27.3959 150.035 27.738 147.677C21.8565 142.479 15.3344 138.92 8.70321 135.047Z" fill="#006B70"/>
<path d="M94.145 122.688C94.145 122.688 98.5124 134.785 101.722 134.072C104.933 133.359 106.818 119.281 105.362 115.037C103.906 110.794 98.5706 102.241 102.45 99.7512C106.33 97.2617 114.097 93.8406 113.369 97.7203C112.995 99.9464 111.879 101.981 110.203 103.493C110.203 103.493 116.994 108.886 118.937 106.943C120.881 104.999 117.729 99.9404 115.545 98.834C113.362 97.7276 114.57 93.4111 118.457 93.8697C122.344 94.3282 127.192 101.01 127.68 103.493C128.167 105.975 131.079 113.953 130.104 117.003C129.128 120.052 122.38 124.871 122.38 124.871C122.38 124.871 117.023 156.171 101.999 153.907C86.9751 151.644 84.2745 143.309 83.19 140.398C82.1054 137.486 94.145 122.688 94.145 122.688Z" fill="#EFBCAB"/>
<path d="M81.7123 148.041C81.7123 148.041 96.1613 138.854 100.07 130.403C101.803 134.37 91.903 111.478 76.0492 99.4527C76.6242 97.7421 74.1202 124.078 81.7123 148.041Z" fill="#3D9499"/>
<path d="M98.4469 126.676C100.012 129.872 100.07 130.411 100.07 130.411C96.1612 138.862 81.7123 148.048 81.7123 148.048C80.9261 145.573 81.5594 146.061 80.9844 143.782C86.3927 137.595 92.085 131.641 98.4469 126.676Z" fill="#006B70"/>
<path d="M26.8936 105.567L42.6382 99.8167C42.6382 99.8167 51.0456 114.746 55.8934 117.978L62.7358 98.8049L76.0783 99.4527L94.669 188.549C94.669 188.549 56.1409 212.031 22.8173 191.926L26.8936 105.567Z" fill="#4F9EA2"/>
<g style="mix-blend-mode:multiply" opacity="0.2">
<path d="M88.1688 186.853C88.1688 186.853 80.3729 147.902 62.8886 149.882C45.4043 151.862 34.2091 178.926 33.0444 192.101C32.9862 192.079 64.8758 208.282 88.1688 186.853Z" fill="#4F9EA2"/>
</g>
<path d="M62.7358 98.8049L55.6532 116.318L59.5548 119.528C59.5548 119.528 66.186 105.058 67.8966 99.016L62.7358 98.8049Z" fill="#398C90"/>
<path d="M37.2736 101.476L42.6382 99.7439C42.6382 99.7439 53.717 120.744 84.1289 132.325L84.8569 137.821C84.8569 137.821 58.2664 134.392 37.2736 101.476Z" fill="#1F7D81"/>
<path d="M66.2807 145.602H66.4699C66.8005 145.608 67.1282 145.54 67.4282 145.401C67.7283 145.262 67.993 145.057 68.2024 144.801L66.7902 143.491C66.7549 143.528 66.7114 143.555 66.6633 143.572C66.6152 143.588 66.5639 143.593 66.5136 143.586C66.4044 143.586 65.7857 143.411 64.9996 141.693C64.5692 142.28 64.1823 142.898 63.8422 143.542C64.5847 144.83 65.3854 145.507 66.2807 145.602Z" fill="#999999"/>
<path d="M36.6548 131.204L38.5183 131.168C38.1907 109.636 39.632 99.6784 45.7974 96.1844C45.7974 95.4565 45.9721 94.7286 46.0012 93.8405C37.9432 97.6985 36.32 108.923 36.6548 131.204Z" fill="#3D3D3D"/>
<path d="M68.2751 100.828C65.6692 96.9924 62.3281 94.634 58.4702 93.8405C58.4985 94.6248 58.5665 95.4071 58.674 96.1844C61.5451 96.9234 64.0991 98.5733 65.9531 100.887C70.3205 106.419 71.5653 114.389 71.507 116.529C69.876 116.755 68.3275 117.386 67.0026 118.363C65.6778 119.341 64.6188 120.635 63.9222 122.127C60.4865 128.787 62.0806 139.466 63.5146 142.559C63.6809 142.913 63.8656 143.258 64.0678 143.593C64.4053 142.948 64.7922 142.33 65.2252 141.744L65.1815 141.657C63.915 138.934 62.4737 129.057 65.5455 123.11C66.1566 121.804 67.1044 120.684 68.2915 119.865C69.4787 119.046 70.8623 118.558 72.3005 118.451C72.5005 118.424 72.6889 118.341 72.8445 118.213C73.0001 118.084 73.1167 117.914 73.1812 117.723C73.7999 116.246 72.6935 107.321 68.2751 100.828Z" fill="#3D3D3D"/>
<path d="M75.94 143.557L76.1074 145.558C76.8205 145.451 77.505 145.202 78.1211 144.827C78.7372 144.452 79.2726 143.958 79.696 143.375C79.3435 142.772 78.9521 142.194 78.5241 141.642C78.2762 142.144 77.9126 142.579 77.4632 142.911C77.0139 143.244 76.4917 143.466 75.94 143.557Z" fill="#999999"/>
<path d="M80.0964 123.132C79.4103 121.471 78.3344 120 76.9597 118.843C75.585 117.687 73.9519 116.878 72.1986 116.486L71.7982 118.444C73.2694 118.772 74.6393 119.452 75.7914 120.424C76.9434 121.396 77.8435 122.632 78.4149 124.027C81.3265 130.578 79.2447 140.092 78.5969 141.54L78.5241 141.686C78.9521 142.237 79.3435 142.816 79.696 143.418C79.9183 143.105 80.1108 142.771 80.2711 142.421C81.0208 140.74 83.3647 130.418 80.0964 123.132Z" fill="#3D3D3D"/>
<path d="M45.71 139.48C45.5353 144.343 41.7356 148.128 37.2226 147.939C32.7096 147.749 29.2156 143.644 29.383 138.789C29.5505 133.934 33.3647 130.141 37.8704 130.316C42.3762 130.491 45.892 134.618 45.71 139.48Z" fill="#999999"/>
<path d="M37.2153 148.936C32.2 148.725 28.2839 144.154 28.4804 138.745C28.677 133.337 32.9207 129.115 37.9432 129.326C42.9658 129.537 46.8747 134.116 46.6781 139.517C46.4816 144.918 42.2015 149.154 37.2153 148.936ZM37.8632 131.335C33.8742 131.168 30.504 134.523 30.3439 138.825C30.1837 143.127 33.3065 146.759 37.2881 146.934C41.2698 147.109 44.6545 143.746 44.8074 139.444C44.9603 135.142 41.823 131.502 37.8341 131.335H37.8632Z" fill="#3D3D3D"/>
<path d="M41.51 139.306C41.5129 139.847 41.4082 140.384 41.2021 140.885C40.996 141.385 40.6925 141.84 40.3093 142.223C39.926 142.605 39.4706 142.908 38.9695 143.113C38.4684 143.318 37.9315 143.422 37.39 143.418C36.2937 143.333 35.2761 142.816 34.561 141.98C33.8458 141.145 33.4914 140.06 33.5758 138.964C33.5748 138.424 33.6806 137.889 33.8871 137.391C34.0937 136.892 34.3968 136.439 34.7791 136.058C35.1614 135.677 35.6152 135.376 36.1146 135.171C36.6139 134.966 37.1488 134.863 37.6884 134.865C38.7819 134.953 39.7967 135.468 40.5122 136.3C41.2278 137.131 41.5863 138.211 41.51 139.306Z" fill="#3D3D3D"/>
<path d="M116.71 106.069L119.01 102.117C117.529 101.221 116.096 100.249 114.716 99.2052L112.233 103.478L116.71 106.069Z" fill="#A8A8A8"/>
<path d="M120.088 102.051L134.1 78.045L132.979 76.0432L129.23 74.2453L127.228 75.3736L114.039 98.6593L120.088 102.051Z" fill="white"/>
<path d="M131.203 76.1451C131.203 76.1451 133.204 77.1788 132.171 79.7847L124.506 92.7851L119.949 90.1355L127.789 76.8294C127.789 76.8294 128.873 74.7767 131.203 76.1451Z" fill="#D6E239"/>
<path d="M133.226 75.5191C133.475 75.7455 133.387 75.6871 133.226 75.5191V75.5191Z" fill="#41464E"/>
<path d="M132.389 74.6238L137.521 65.8016L136.793 65.3211L131.632 74.187L132.389 74.6238Z" fill="#A8A8A8"/>
<path d="M112.233 103.463L109.62 101.942L108.543 103.798L118.261 109.447L119.338 107.598L116.71 106.069L112.233 103.463Z" fill="#565656"/>
<path d="M133.212 75.541C133.086 75.4251 132.955 75.3157 132.819 75.2134L133.612 73.845C133.022 73.4519 132.433 73.0515 131.814 72.6876L130.948 74.1434C130.817 74.0925 130.693 74.0342 130.548 73.9905C129.499 73.6266 127.862 73.8886 126.69 75.7448L113.915 97.713L113.114 97.2545L112.292 98.6739L112.961 99.067L114.286 99.8385L119.098 102.612L120.801 103.602L121.631 102.146L120.852 101.687L133.707 79.5809C134.075 78.9452 134.225 78.207 134.136 77.478C134.047 76.749 133.722 76.069 133.212 75.541ZM132.593 79.8138L120.037 101.411L119.352 101.01L115.312 98.6593L114.621 98.259L127.228 76.5673C127.448 76.2122 127.739 75.9061 128.082 75.6681C128.425 75.4301 128.814 75.2654 129.224 75.1841C129.633 75.1028 130.055 75.1068 130.464 75.1958C130.872 75.2847 131.257 75.4567 131.596 75.7011C131.596 75.7011 134.107 77.2807 132.571 79.8138H132.593Z" fill="#565656"/>
<path d="M122.351 99.0014L121.565 98.5428L120.233 97.7567L119.454 97.2981L119.134 97.8513L122.024 99.5546L122.351 99.0014Z" fill="#41464E"/>
<path d="M123.319 97.3127L122.541 96.8541L121.201 96.0752L120.43 95.6166L120.102 96.1698L122.999 97.8659L123.319 97.3127Z" fill="#41464E"/>
<path d="M124.186 95.8205L123.4 95.3546L122.067 94.5757L121.289 94.1172L120.968 94.6704L123.858 96.3664L124.186 95.8205Z" fill="#41464E"/>
<path d="M125.045 94.3283L124.258 93.8697L122.926 93.0835L122.155 92.625L121.827 93.1782L124.724 94.8815L125.045 94.3283Z" fill="#41464E"/>
<path d="M125.853 92.9234L125.066 92.4648L123.742 91.6787L122.963 91.2274L122.635 91.7733L125.532 93.4766L125.853 92.9234Z" fill="#41464E"/>
<path d="M126.748 91.3802L125.962 90.9144L124.63 90.1355L123.851 89.6769L123.531 90.2229L126.42 91.9262L126.748 91.3802Z" fill="#41464E"/>
<path d="M127.578 89.939L126.792 89.4804L125.46 88.6943L124.681 88.243L124.36 88.7889L127.25 90.4922L127.578 89.939Z" fill="#41464E"/>
<path d="M128.444 88.4322L127.665 87.9736L126.333 87.1875L125.554 86.7289L125.227 87.2821L128.124 88.9854L128.444 88.4322Z" fill="#41464E"/>
<path d="M129.419 86.7434L128.633 86.2849L127.301 85.506L126.522 85.0474L126.202 85.5934L129.092 87.2967L129.419 86.7434Z" fill="#41464E"/>
<path d="M130.387 85.062L129.609 84.6034L128.277 83.8173L127.498 83.3587L127.177 83.9119L130.067 85.6152L130.387 85.062Z" fill="#41464E"/>
<path d="M131.232 83.5989L130.453 83.1403L129.121 82.3542L128.342 81.8956L128.022 82.4488L130.912 84.1448L131.232 83.5989Z" fill="#41464E"/>
<path d="M132.098 82.1067L131.312 81.6481L129.98 80.862L129.201 80.4034L128.881 80.9566L131.77 82.6526L132.098 82.1067Z" fill="#41464E"/>
<defs>
<filter id="filter0_d" x="71.7071" y="273.095" width="52.5479" height="30.7154" filterUnits="userSpaceOnUse" color-interpolation-filters="sRGB">
<feFlood flood-opacity="0" result="BackgroundImageFix"/>
<feColorMatrix in="SourceAlpha" type="matrix" values="0 0 0 0 0 0 0 0 0 0 0 0 0 0 0 0 0 0 127 0"/>
<feOffset dy="4"/>
<feGaussianBlur stdDeviation="2"/>
<feColorMatrix type="matrix" values="0 0 0 0 0 0 0 0 0 0 0 0 0 0 0 0 0 0 0.25 0"/>
<feBlend mode="normal" in2="BackgroundImageFix" result="effect1_dropShadow"/>
<feBlend mode="normal" in="SourceGraphic" in2="effect1_dropShadow" result="shape"/>
</filter>
<filter id="filter1_d" x="0.736115" y="274.332" width="52.8536" height="30.6167" filterUnits="userSpaceOnUse" color-interpolation-filters="sRGB">
<feFlood flood-opacity="0" result="BackgroundImageFix"/>
<feColorMatrix in="SourceAlpha" type="matrix" values="0 0 0 0 0 0 0 0 0 0 0 0 0 0 0 0 0 0 127 0"/>
<feOffset dy="4"/>
<feGaussianBlur stdDeviation="2"/>
<feColorMatrix type="matrix" values="0 0 0 0 0 0 0 0 0 0 0 0 0 0 0 0 0 0 0.25 0"/>
<feBlend mode="normal" in2="BackgroundImageFix" result="effect1_dropShadow"/>
<feBlend mode="normal" in="SourceGraphic" in2="effect1_dropShadow" result="shape"/>
</filter>
</defs>
</svg>
